<svg xmlns="http://www.w3.org/2000/svg" viewBox="0 0 256 153">
  <path fill="#252F3E" d="M72.392 55.438c0 3.137.34 5.68.933 7.545.679 1.865 1.527 3.899 2.63 6.103.424.678.593 1.356.593 1.95 0 .847-.509 1.695-1.611 2.543l-5.343 3.56c-.763.509-1.526.763-2.205.763-.847 0-1.695-.424-2.543-1.187a26.147 26.147 0 0 1-3.052-3.984c-.848-1.44-1.695-3.052-2.628-4.917-6.612 7.799-14.92 11.698-24.922 11.698-7.12 0-12.8-2.035-16.954-6.103-4.153-4.07-6.273-9.496-6.273-16.276 0-7.206 2.543-13.054 7.714-17.462 5.172-4.408 12.039-6.612 20.685-6.612 2.882 0 5.85.254 8.987.678 3.137.424 6.358 1.102 9.75 1.865V31.78c0-6.443-1.356-10.935-3.984-13.563-2.712-2.628-7.29-3.899-13.817-3.899-2.967 0-6.018.34-9.155 1.102-3.137.763-6.188 1.695-9.155 2.882-.678.34-1.187.509-1.441.594a2.46 2.46 0 0 1-.763.17c-.678 0-1.017-.51-1.017-1.611V14.304c0-.848.085-1.44.339-1.78.254-.34.763-.678 1.526-1.017 2.967-1.526 6.527-2.798 10.68-3.815C33.908 6.611 38.4 6.103 43.147 6.103c10.002 0 17.292 2.289 21.954 6.866 4.578 4.578 6.95 11.529 6.95 20.854v27.466l.34.17v-.001zM36.027 67.306c2.797 0 5.68-.509 8.732-1.527 3.052-1.017 5.765-2.882 8.053-5.425 1.356-1.611 2.374-3.391 2.882-5.51.509-2.12.848-4.663.848-7.63v-3.645c-2.458-.594-5.086-1.102-7.799-1.44a64.63 64.63 0 0 0-7.884-.51c-5.68 0-9.833 1.103-12.63 3.392-2.797 2.289-4.153 5.51-4.153 9.749 0 3.984 1.017 6.95 3.137 8.986 2.035 2.12 4.917 3.137 8.732 3.137l.085.424h-.003zm68.063 9.24c-.847 0-1.44-.17-1.864-.594-.424-.34-.848-1.102-1.187-2.12l-13.308-43.826c-.34-1.102-.509-1.865-.509-2.289 0-.932.424-1.44 1.356-1.44h8.308c.932 0 1.526.17 1.95.594.424.339.763 1.102 1.102 2.12l9.495 37.47 8.817-37.47c.255-1.103.594-1.781 1.018-2.12.424-.424 1.102-.594 2.034-.594h6.782c.933 0 1.527.17 2.035.594.424.339.848 1.102 1.017 2.12l8.902 37.894 9.75-37.894c.339-1.103.763-1.781 1.102-2.12.424-.424 1.102-.594 1.95-.594h7.883c.932 0 1.44.508 1.44 1.44 0 .255-.084.594-.169.933-.085.34-.17.848-.424 1.356l-13.648 43.826c-.34 1.102-.763 1.78-1.187 2.12-.424.424-1.102.593-1.865.593h-7.29c-.933 0-1.527-.17-1.95-.593-.424-.424-.848-1.102-1.018-2.205l-8.732-36.452-8.647 36.367c-.255 1.103-.593 1.78-1.017 2.205-.424.424-1.102.594-2.035.594h-7.29l.085.085zm108.912 2.289c-4.408 0-8.817-.509-13.054-1.526-4.238-1.018-7.544-2.12-9.75-3.392-1.356-.763-2.289-1.611-2.628-2.373a5.921 5.921 0 0 1-.509-2.374v-5.68c0-1.102.424-1.611 1.187-1.611.339 0 .678.084 1.017.17.34.084.848.339 1.356.593 2.882 1.272 6.018 2.289 9.325 3.052 3.391.763 6.697 1.102 10.088 1.102 5.341 0 9.49-.932 12.373-2.882 2.882-1.95 4.408-4.747 4.408-8.392 0-2.459-.763-4.493-2.289-6.188-1.526-1.695-4.408-3.222-8.562-4.663l-12.292-3.815c-6.188-1.95-10.765-4.833-13.563-8.647-2.797-3.73-4.238-7.884-4.238-12.292 0-3.56.763-6.697 2.289-9.41 1.526-2.712 3.56-5.086 6.103-6.95 2.543-1.95 5.51-3.392 8.902-4.408 3.391-1.017 6.951-1.441 10.68-1.441 1.865 0 3.815.085 5.68.34 1.95.255 3.73.593 5.51.932 1.695.424 3.306.848 4.832 1.357 1.526.508 2.712 1.017 3.56 1.526.847.508 1.526 1.017 1.865 1.526.34.508.509 1.187.509 2.035v5.256c0 1.102-.424 1.695-1.187 1.695-.424 0-1.102-.254-2.035-.678-3.137-1.44-6.697-2.543-10.68-3.306-3.984-.678-7.629-1.017-10.935-1.017-4.832 0-8.647.763-11.19 2.458-2.542 1.696-3.898 4.239-3.898 7.715 0 2.458.847 4.578 2.543 6.273 1.696 1.695 4.833 3.391 9.325 4.917l12.038 3.814c6.103 1.95 10.51 4.663 13.139 8.223 2.628 3.56 3.898 7.63 3.898 12.123 0 3.645-.763 6.951-2.204 9.834-1.526 2.882-3.56 5.426-6.188 7.46-2.628 2.12-5.765 3.645-9.41 4.747-3.815 1.187-7.884 1.78-12.207 1.78v-.001z"/>
  <path fill="#F90" d="M230.993 120.964c-27.888 20.599-68.408 31.534-103.247 31.534-48.827 0-92.821-18.056-126.05-48.064-2.628-2.374-.255-5.596 2.882-3.73 35.942 20.854 80.276 33.484 126.135 33.484 30.94 0 64.932-6.442 96.212-19.666 4.663-2.12 8.647 3.052 4.068 6.442z"/>
  <path fill="#F90" d="M242.606 107.576c-3.56-4.578-23.566-2.204-32.552-1.102-2.713.339-3.137-2.035-.678-3.814 15.938-11.19 42.13-7.968 45.182-4.239 3.052 3.815-.848 30.008-15.768 42.554-2.289 1.95-4.493.933-3.476-1.61 3.391-8.394 10.934-27.296 7.292-31.789z"/>
</svg>