<svg xmlns="http://www.w3.org/2000/svg" viewBox="0 0 24 24">
  <path fill="#2088FF" d="M10.984 13.836a.5.5 0 0 1-.353-.146l-.745-.743a.5.5 0 1 1 .706-.708l.392.391 1.181-1.18a.5.5 0 0 1 .708.707l-1.535 1.533a.504.504 0 0 1-.354.146zm9.353-.147l1.534-1.532a.5.5 0 0 0-.707-.707l-1.181 1.18-.392-.391a.5.5 0 1 0-.706.708l.746.743a.497.497 0 0 0 .706-.001zM4.527 7.452l2.557-1.585A1 1 0 0 0 7.09 4.17L4.533 2.56A1 1 0 0 0 3 3.406v3.196a1 1 0 0 0 1.527.85zm5.456 3.482a.5.5 0 0 1-.353-.146l-.745-.743a.5.5 0 1 1 .706-.708l.392.391 1.181-1.18a.5.5 0 0 1 .708.707l-1.535 1.533a.504.504 0 0 1-.354.146zm9.353-.147l1.534-1.532a.5.5 0 0 0-.707-.707l-1.181 1.18-.392-.391a.5.5 0 1 0-.706.708l.746.743a.497.497 0 0 0 .706-.001zm-.334 6.878a.5.5 0 0 1-.353-.146l-.745-.743a.5.5 0 1 1 .706-.708l.392.391 1.181-1.18a.5.5 0 0 1 .708.707l-1.535 1.533a.504.504 0 0 1-.354.146zM7 20h2v2H7v-2zm-2 0h-.5a.5.5 0 0 1-.5-.5V17H2v2.5A2.5 2.5 0 0 0 4.5 22H5v-2zm12 0h2v2h-2v-2zm5-3h-2v2.5a.5.5 0 0 1-.5.5H19v2h.5a2.5 2.5 0 0 0 2.5-2.5V17zM7 2h2v2H7V2zm5 0h2v2h-2V2zm5 0h2v2h-2V2zM4 2v2h.5a.5.5 0 0 1 .5.5V5h2V4.5A2.5 2.5 0 0 0 4.5 2H4zm18 2.5A2.5 2.5 0 0 0 19.5 2H19v2h.5a.5.5 0 0 1 .5.5V5h2v-.5zM4 7h2v2H4V7zm0 5h2v2H4v-2zm0 5h2v2H4v-2zm16-5h2v2h-2v-2zm0-5h2v2h-2V7z"/>
</svg>